<svg data-name="Warstwa 1" xmlns="http://www.w3.org/2000/svg" width="200" height="200"><path d="M98.16 155.18c-7.39-3.52-14.62-7.28-21.69-11.12-9.32-5.06-36.39-22.41-44.54-27.93 8.15 5.52 32.83 23.27 39.19 28.83 4.82 4.21 9.34 8.42 13.21 12.53 3.31 3.53 6.54 7.1 8 10.2a9.29 9.29 0 0 1 1 4.17l33.38-5.59c-3-.74-6.09-1.68-9.25-2.79a197.46 197.46 0 0 1-19.3-8.3Z" fill="red"/><path d="M131.54 149.59c-7.38-3.52-14.62-7.28-21.69-11.12-9.31-5.06-36.39-22.41-44.54-27.93 8.15 5.52 32.84 23.27 39.2 28.83 4.82 4.21 9.34 8.42 13.2 12.53 3.32 3.53 6.55 7.1 8 10.2a9.29 9.29 0 0 1 1 4.17l33.39-5.59c-3-.74-6.09-1.68-9.25-2.79a198.67 198.67 0 0 1-19.31-8.3ZM184.4 152.27a197.46 197.46 0 0 1-19.3-8.3c-7.39-3.52-14.62-7.27-21.69-11.12-9.32-5.06-36.39-22.41-44.54-27.93 8.15 5.52 32.83 23.27 39.19 28.83 4.82 4.22 9.34 8.43 13.21 12.53 3.31 3.53 6.54 7.1 8 10.2a9.29 9.29 0 0 1 1 4.17l33.38-5.59c-2.97-.74-6.09-1.68-9.25-2.79Z" fill="red"/><path d="M6.35 28.14a28.43 28.43 0 0 1 5 4.34c3.14 3.45 5.19 7.7 7.08 11.92a101.34 101.34 0 0 1 5.31 15.23c1.85 6.84 3.35 40 3.35 47.12 0-7.12 1.49-40.28 3.34-47.12a103.62 103.62 0 0 1 5.26-15.23c1.9-4.22 3.94-8.47 7.08-11.92.31-.34.63-.67 1-1 .32.33.65.67 1 1 3.14 3.45 5.18 7.7 7.08 11.92a103.62 103.62 0 0 1 5.31 15.23c1.85 6.84 3.34 34.29 3.34 41.41 0-7.12 1.5-34.57 3.35-41.41a102.47 102.47 0 0 1 5.31-15.23c1.84-4.21 3.84-8.46 7-11.91.33-.37.68-.73 1-1.09.36.36.71.72 1 1.09 3.14 3.45 5.19 7.7 7.08 11.92a101.34 101.34 0 0 1 5.31 15.23C92.48 66.48 94 89.08 94 96.2c0-7.12 1.49-29.72 3.34-36.56a103.62 103.62 0 0 1 5.31-15.23c1.9-4.22 3.94-8.47 7.08-11.92a29.42 29.42 0 0 1 5-4.35Z" fill="#fff"/></svg>