<svg data-name="Warstwa 1" xmlns="http://www.w3.org/2000/svg" width="200" height="200"><path d="M197 98.41c.33 56.79-49.68 102.19-106.15 96.51 106.82-4 105.83-160.54-1.1-163.16-55.55-1.1-96.44 57.86-76.66 109.47C-19.12 79.4 29.77-.31 100.08 1.46A97 97 0 0 1 197 98.41Z" fill="#00f"/><path d="M70.43 175.46c-.78 30.81-45.95 30.81-46.73 0 .79-30.82 45.95-30.81 46.73 0ZM90.41 60.48c-.73-10.56-3.74-25-12.54-31.69H103c-8.85 6.72-11.86 21.13-12.59 31.69ZM67.28 65.76C62 56.57 53.07 44.89 42.22 42.65l22.61-10.89c-5.02 10-1.49 24.07 2.45 34ZM48.72 80.56c-8.71-6-21.85-12.65-32.6-10L31.77 51c-.23 11.06 9.15 22.4 16.95 29.56ZM142.39 125.67c10.46 1.63 25.18 1.9 33.69-5.18L170.5 145c-4.6-10.13-17.97-16.27-28.11-19.33ZM142.39 101.94c10.14-3.06 23.51-9.21 28.11-19.29l5.58 24.46c-8.51-7.11-23.22-6.81-33.69-5.17ZM132.1 80.56c7.8-7.16 17.19-18.49 17-29.57l15.6 19.61c-10.7-2.68-23.89 3.94-32.6 9.96ZM113.54 65.76c3.94-9.93 7.47-24 2.45-34l22.61 10.89c-10.85 2.24-19.81 13.91-25.06 23.11Z" fill="#fff"/></svg>